# https://github.com/mikedh/trimesh
mtllib lego_2x2_lavender.mtl
o LEGO_Brick
usemtl BrickColor

v -0.00790000 0.00790000 -0.00800000
v -0.00790000 0.00790000 -0.00960000
v -0.00790000 -0.00790000 -0.00800000
v -0.00790000 -0.00790000 -0.00960000
v 0.00790000 0.00790000 -0.00800000
v 0.00790000 0.00790000 -0.00960000
v 0.00790000 -0.00790000 -0.00800000
v 0.00790000 -0.00790000 -0.00960000
v 0.00670000 0.00790000 0.00000000
v 0.00670000 0.00790000 -0.00800000
v 0.00670000 -0.00790000 0.00000000
v 0.00670000 -0.00790000 -0.00800000
v 0.00790000 0.00790000 0.00000000
v 0.00790000 0.00790000 -0.00800000
v 0.00790000 -0.00790000 0.00000000
v 0.00790000 -0.00790000 -0.00800000
v -0.00790000 0.00790000 0.00000000
v -0.00790000 0.00790000 -0.00800000
v -0.00790000 -0.00790000 0.00000000
v -0.00790000 -0.00790000 -0.00800000
v -0.00670000 0.00790000 0.00000000
v -0.00670000 0.00790000 -0.00800000
v -0.00670000 -0.00790000 0.00000000
v -0.00670000 -0.00790000 -0.00800000
v -0.00670000 -0.00670000 0.00000000
v -0.00670000 -0.00670000 -0.00800000
v -0.00670000 -0.00790000 0.00000000
v -0.00670000 -0.00790000 -0.00800000
v 0.00670000 -0.00670000 0.00000000
v 0.00670000 -0.00670000 -0.00800000
v 0.00670000 -0.00790000 0.00000000
v 0.00670000 -0.00790000 -0.00800000
v -0.00670000 0.00790000 0.00000000
v -0.00670000 0.00790000 -0.00800000
v -0.00670000 0.00670000 0.00000000
v -0.00670000 0.00670000 -0.00800000
v 0.00670000 0.00790000 0.00000000
v 0.00670000 0.00790000 -0.00800000
v 0.00670000 0.00670000 0.00000000
v 0.00670000 0.00670000 -0.00800000
v 0.00400000 -0.00400000 -0.00960000
v 0.00640000 -0.00400000 -0.00960000
v 0.00640000 -0.00400000 -0.01130000
v 0.00400000 -0.00400000 -0.01130000
v 0.00635388 -0.00446822 -0.00960000
v 0.00635388 -0.00446822 -0.01130000
v 0.00621731 -0.00491844 -0.00960000
v 0.00621731 -0.00491844 -0.01130000
v 0.00599553 -0.00533337 -0.00960000
v 0.00599553 -0.00533337 -0.01130000
v 0.00569706 -0.00569706 -0.00960000
v 0.00569706 -0.00569706 -0.01130000
v 0.00533337 -0.00599553 -0.00960000
v 0.00533337 -0.00599553 -0.01130000
v 0.00491844 -0.00621731 -0.00960000
v 0.00491844 -0.00621731 -0.01130000
v 0.00446822 -0.00635388 -0.00960000
v 0.00446822 -0.00635388 -0.01130000
v 0.00400000 -0.00640000 -0.00960000
v 0.00400000 -0.00640000 -0.01130000
v 0.00353178 -0.00635388 -0.00960000
v 0.00353178 -0.00635388 -0.01130000
v 0.00308156 -0.00621731 -0.00960000
v 0.00308156 -0.00621731 -0.01130000
v 0.00266663 -0.00599553 -0.00960000
v 0.00266663 -0.00599553 -0.01130000
v 0.00230294 -0.00569706 -0.00960000
v 0.00230294 -0.00569706 -0.01130000
v 0.00200447 -0.00533337 -0.00960000
v 0.00200447 -0.00533337 -0.01130000
v 0.00178269 -0.00491844 -0.00960000
v 0.00178269 -0.00491844 -0.01130000
v 0.00164612 -0.00446822 -0.00960000
v 0.00164612 -0.00446822 -0.01130000
v 0.00160000 -0.00400000 -0.00960000
v 0.00160000 -0.00400000 -0.01130000
v 0.00164612 -0.00353178 -0.00960000
v 0.00164612 -0.00353178 -0.01130000
v 0.00178269 -0.00308156 -0.00960000
v 0.00178269 -0.00308156 -0.01130000
v 0.00200447 -0.00266663 -0.00960000
v 0.00200447 -0.00266663 -0.01130000
v 0.00230294 -0.00230294 -0.00960000
v 0.00230294 -0.00230294 -0.01130000
v 0.00266663 -0.00200447 -0.00960000
v 0.00266663 -0.00200447 -0.01130000
v 0.00308156 -0.00178269 -0.00960000
v 0.00308156 -0.00178269 -0.01130000
v 0.00353178 -0.00164612 -0.00960000
v 0.00353178 -0.00164612 -0.01130000
v 0.00400000 -0.00160000 -0.00960000
v 0.00400000 -0.00160000 -0.01130000
v 0.00446822 -0.00164612 -0.00960000
v 0.00446822 -0.00164612 -0.01130000
v 0.00491844 -0.00178269 -0.00960000
v 0.00491844 -0.00178269 -0.01130000
v 0.00533337 -0.00200447 -0.00960000
v 0.00533337 -0.00200447 -0.01130000
v 0.00569706 -0.00230294 -0.00960000
v 0.00569706 -0.00230294 -0.01130000
v 0.00599553 -0.00266663 -0.00960000
v 0.00599553 -0.00266663 -0.01130000
v 0.00621731 -0.00308156 -0.00960000
v 0.00621731 -0.00308156 -0.01130000
v 0.00635388 -0.00353178 -0.00960000
v 0.00635388 -0.00353178 -0.01130000
v -0.00400000 -0.00400000 -0.00960000
v -0.00160000 -0.00400000 -0.00960000
v -0.00160000 -0.00400000 -0.01130000
v -0.00400000 -0.00400000 -0.01130000
v -0.00164612 -0.00446822 -0.00960000
v -0.00164612 -0.00446822 -0.01130000
v -0.00178269 -0.00491844 -0.00960000
v -0.00178269 -0.00491844 -0.01130000
v -0.00200447 -0.00533337 -0.00960000
v -0.00200447 -0.00533337 -0.01130000
v -0.00230294 -0.00569706 -0.00960000
v -0.00230294 -0.00569706 -0.01130000
v -0.00266663 -0.00599553 -0.00960000
v -0.00266663 -0.00599553 -0.01130000
v -0.00308156 -0.00621731 -0.00960000
v -0.00308156 -0.00621731 -0.01130000
v -0.00353178 -0.00635388 -0.00960000
v -0.00353178 -0.00635388 -0.01130000
v -0.00400000 -0.00640000 -0.00960000
v -0.00400000 -0.00640000 -0.01130000
v -0.00446822 -0.00635388 -0.00960000
v -0.00446822 -0.00635388 -0.01130000
v -0.00491844 -0.00621731 -0.00960000
v -0.00491844 -0.00621731 -0.01130000
v -0.00533337 -0.00599553 -0.00960000
v -0.00533337 -0.00599553 -0.01130000
v -0.00569706 -0.00569706 -0.00960000
v -0.00569706 -0.00569706 -0.01130000
v -0.00599553 -0.00533337 -0.00960000
v -0.00599553 -0.00533337 -0.01130000
v -0.00621731 -0.00491844 -0.00960000
v -0.00621731 -0.00491844 -0.01130000
v -0.00635388 -0.00446822 -0.00960000
v -0.00635388 -0.00446822 -0.01130000
v -0.00640000 -0.00400000 -0.00960000
v -0.00640000 -0.00400000 -0.01130000
v -0.00635388 -0.00353178 -0.00960000
v -0.00635388 -0.00353178 -0.01130000
v -0.00621731 -0.00308156 -0.00960000
v -0.00621731 -0.00308156 -0.01130000
v -0.00599553 -0.00266663 -0.00960000
v -0.00599553 -0.00266663 -0.01130000
v -0.00569706 -0.00230294 -0.00960000
v -0.00569706 -0.00230294 -0.01130000
v -0.00533337 -0.00200447 -0.00960000
v -0.00533337 -0.00200447 -0.01130000
v -0.00491844 -0.00178269 -0.00960000
v -0.00491844 -0.00178269 -0.01130000
v -0.00446822 -0.00164612 -0.00960000
v -0.00446822 -0.00164612 -0.01130000
v -0.00400000 -0.00160000 -0.00960000
v -0.00400000 -0.00160000 -0.01130000
v -0.00353178 -0.00164612 -0.00960000
v -0.00353178 -0.00164612 -0.01130000
v -0.00308156 -0.00178269 -0.00960000
v -0.00308156 -0.00178269 -0.01130000
v -0.00266663 -0.00200447 -0.00960000
v -0.00266663 -0.00200447 -0.01130000
v -0.00230294 -0.00230294 -0.00960000
v -0.00230294 -0.00230294 -0.01130000
v -0.00200447 -0.00266663 -0.00960000
v -0.00200447 -0.00266663 -0.01130000
v -0.00178269 -0.00308156 -0.00960000
v -0.00178269 -0.00308156 -0.01130000
v -0.00164612 -0.00353178 -0.00960000
v -0.00164612 -0.00353178 -0.01130000
v 0.00400000 0.00400000 -0.00960000
v 0.00640000 0.00400000 -0.00960000
v 0.00640000 0.00400000 -0.01130000
v 0.00400000 0.00400000 -0.01130000
v 0.00635388 0.00353178 -0.00960000
v 0.00635388 0.00353178 -0.01130000
v 0.00621731 0.00308156 -0.00960000
v 0.00621731 0.00308156 -0.01130000
v 0.00599553 0.00266663 -0.00960000
v 0.00599553 0.00266663 -0.01130000
v 0.00569706 0.00230294 -0.00960000
v 0.00569706 0.00230294 -0.01130000
v 0.00533337 0.00200447 -0.00960000
v 0.00533337 0.00200447 -0.01130000
v 0.00491844 0.00178269 -0.00960000
v 0.00491844 0.00178269 -0.01130000
v 0.00446822 0.00164612 -0.00960000
v 0.00446822 0.00164612 -0.01130000
v 0.00400000 0.00160000 -0.00960000
v 0.00400000 0.00160000 -0.01130000
v 0.00353178 0.00164612 -0.00960000
v 0.00353178 0.00164612 -0.01130000
v 0.00308156 0.00178269 -0.00960000
v 0.00308156 0.00178269 -0.01130000
v 0.00266663 0.00200447 -0.00960000
v 0.00266663 0.00200447 -0.01130000
v 0.00230294 0.00230294 -0.00960000
v 0.00230294 0.00230294 -0.01130000
v 0.00200447 0.00266663 -0.00960000
v 0.00200447 0.00266663 -0.01130000
v 0.00178269 0.00308156 -0.00960000
v 0.00178269 0.00308156 -0.01130000
v 0.00164612 0.00353178 -0.00960000
v 0.00164612 0.00353178 -0.01130000
v 0.00160000 0.00400000 -0.00960000
v 0.00160000 0.00400000 -0.01130000
v 0.00164612 0.00446822 -0.00960000
v 0.00164612 0.00446822 -0.01130000
v 0.00178269 0.00491844 -0.00960000
v 0.00178269 0.00491844 -0.01130000
v 0.00200447 0.00533337 -0.00960000
v 0.00200447 0.00533337 -0.01130000
v 0.00230294 0.00569706 -0.00960000
v 0.00230294 0.00569706 -0.01130000
v 0.00266663 0.00599553 -0.00960000
v 0.00266663 0.00599553 -0.01130000
v 0.00308156 0.00621731 -0.00960000
v 0.00308156 0.00621731 -0.01130000
v 0.00353178 0.00635388 -0.00960000
v 0.00353178 0.00635388 -0.01130000
v 0.00400000 0.00640000 -0.00960000
v 0.00400000 0.00640000 -0.01130000
v 0.00446822 0.00635388 -0.00960000
v 0.00446822 0.00635388 -0.01130000
v 0.00491844 0.00621731 -0.00960000
v 0.00491844 0.00621731 -0.01130000
v 0.00533337 0.00599553 -0.00960000
v 0.00533337 0.00599553 -0.01130000
v 0.00569706 0.00569706 -0.00960000
v 0.00569706 0.00569706 -0.01130000
v 0.00599553 0.00533337 -0.00960000
v 0.00599553 0.00533337 -0.01130000
v 0.00621731 0.00491844 -0.00960000
v 0.00621731 0.00491844 -0.01130000
v 0.00635388 0.00446822 -0.00960000
v 0.00635388 0.00446822 -0.01130000
v -0.00400000 0.00400000 -0.00960000
v -0.00160000 0.00400000 -0.00960000
v -0.00160000 0.00400000 -0.01130000
v -0.00400000 0.00400000 -0.01130000
v -0.00164612 0.00353178 -0.00960000
v -0.00164612 0.00353178 -0.01130000
v -0.00178269 0.00308156 -0.00960000
v -0.00178269 0.00308156 -0.01130000
v -0.00200447 0.00266663 -0.00960000
v -0.00200447 0.00266663 -0.01130000
v -0.00230294 0.00230294 -0.00960000
v -0.00230294 0.00230294 -0.01130000
v -0.00266663 0.00200447 -0.00960000
v -0.00266663 0.00200447 -0.01130000
v -0.00308156 0.00178269 -0.00960000
v -0.00308156 0.00178269 -0.01130000
v -0.00353178 0.00164612 -0.00960000
v -0.00353178 0.00164612 -0.01130000
v -0.00400000 0.00160000 -0.00960000
v -0.00400000 0.00160000 -0.01130000
v -0.00446822 0.00164612 -0.00960000
v -0.00446822 0.00164612 -0.01130000
v -0.00491844 0.00178269 -0.00960000
v -0.00491844 0.00178269 -0.01130000
v -0.00533337 0.00200447 -0.00960000
v -0.00533337 0.00200447 -0.01130000
v -0.00569706 0.00230294 -0.00960000
v -0.00569706 0.00230294 -0.01130000
v -0.00599553 0.00266663 -0.00960000
v -0.00599553 0.00266663 -0.01130000
v -0.00621731 0.00308156 -0.00960000
v -0.00621731 0.00308156 -0.01130000
v -0.00635388 0.00353178 -0.00960000
v -0.00635388 0.00353178 -0.01130000
v -0.00640000 0.00400000 -0.00960000
v -0.00640000 0.00400000 -0.01130000
v -0.00635388 0.00446822 -0.00960000
v -0.00635388 0.00446822 -0.01130000
v -0.00621731 0.00491844 -0.00960000
v -0.00621731 0.00491844 -0.01130000
v -0.00599553 0.00533337 -0.00960000
v -0.00599553 0.00533337 -0.01130000
v -0.00569706 0.00569706 -0.00960000
v -0.00569706 0.00569706 -0.01130000
v -0.00533337 0.00599553 -0.00960000
v -0.00533337 0.00599553 -0.01130000
v -0.00491844 0.00621731 -0.00960000
v -0.00491844 0.00621731 -0.01130000
v -0.00446822 0.00635388 -0.00960000
v -0.00446822 0.00635388 -0.01130000
v -0.00400000 0.00640000 -0.00960000
v -0.00400000 0.00640000 -0.01130000
v -0.00353178 0.00635388 -0.00960000
v -0.00353178 0.00635388 -0.01130000
v -0.00308156 0.00621731 -0.00960000
v -0.00308156 0.00621731 -0.01130000
v -0.00266663 0.00599553 -0.00960000
v -0.00266663 0.00599553 -0.01130000
v -0.00230294 0.00569706 -0.00960000
v -0.00230294 0.00569706 -0.01130000
v -0.00200447 0.00533337 -0.00960000
v -0.00200447 0.00533337 -0.01130000
v -0.00178269 0.00491844 -0.00960000
v -0.00178269 0.00491844 -0.01130000
v -0.00164612 0.00446822 -0.00960000
v -0.00164612 0.00446822 -0.01130000
f 2 4 1
f 5 2 1
f 1 4 3
f 3 5 1
f 2 8 4
f 6 2 5
f 6 8 2
f 4 8 3
f 7 5 3
f 3 8 7
f 7 6 5
f 8 6 7
f 10 12 9
f 13 10 9
f 9 12 11
f 11 13 9
f 10 16 12
f 14 10 13
f 14 16 10
f 12 16 11
f 15 13 11
f 11 16 15
f 15 14 13
f 16 14 15
f 18 20 17
f 21 18 17
f 17 20 19
f 19 21 17
f 18 24 20
f 22 18 21
f 22 24 18
f 20 24 19
f 23 21 19
f 19 24 23
f 23 22 21
f 24 22 23
f 26 28 25
f 29 26 25
f 25 28 27
f 27 29 25
f 26 32 28
f 30 26 29
f 30 32 26
f 28 32 27
f 31 29 27
f 27 32 31
f 31 30 29
f 32 30 31
f 34 36 33
f 37 34 33
f 33 36 35
f 35 37 33
f 34 40 36
f 38 34 37
f 38 40 34
f 36 40 35
f 39 37 35
f 35 40 39
f 39 38 37
f 40 38 39
f 42 41 45
f 42 45 43
f 43 45 46
f 43 46 44
f 45 41 47
f 45 47 46
f 46 47 48
f 46 48 44
f 47 41 49
f 47 49 48
f 48 49 50
f 48 50 44
f 49 41 51
f 49 51 50
f 50 51 52
f 50 52 44
f 51 41 53
f 51 53 52
f 52 53 54
f 52 54 44
f 53 41 55
f 53 55 54
f 54 55 56
f 54 56 44
f 55 41 57
f 55 57 56
f 56 57 58
f 56 58 44
f 57 41 59
f 57 59 58
f 58 59 60
f 58 60 44
f 59 41 61
f 59 61 60
f 60 61 62
f 60 62 44
f 61 41 63
f 61 63 62
f 62 63 64
f 62 64 44
f 63 41 65
f 63 65 64
f 64 65 66
f 64 66 44
f 65 41 67
f 65 67 66
f 66 67 68
f 66 68 44
f 67 41 69
f 67 69 68
f 68 69 70
f 68 70 44
f 69 41 71
f 69 71 70
f 70 71 72
f 70 72 44
f 71 41 73
f 71 73 72
f 72 73 74
f 72 74 44
f 73 41 75
f 73 75 74
f 74 75 76
f 74 76 44
f 75 41 77
f 75 77 76
f 76 77 78
f 76 78 44
f 77 41 79
f 77 79 78
f 78 79 80
f 78 80 44
f 79 41 81
f 79 81 80
f 80 81 82
f 80 82 44
f 81 41 83
f 81 83 82
f 82 83 84
f 82 84 44
f 83 41 85
f 83 85 84
f 84 85 86
f 84 86 44
f 85 41 87
f 85 87 86
f 86 87 88
f 86 88 44
f 87 41 89
f 87 89 88
f 88 89 90
f 88 90 44
f 89 41 91
f 89 91 90
f 90 91 92
f 90 92 44
f 91 41 93
f 91 93 92
f 92 93 94
f 92 94 44
f 93 41 95
f 93 95 94
f 94 95 96
f 94 96 44
f 95 41 97
f 95 97 96
f 96 97 98
f 96 98 44
f 97 41 99
f 97 99 98
f 98 99 100
f 98 100 44
f 99 41 101
f 99 101 100
f 100 101 102
f 100 102 44
f 101 41 103
f 101 103 102
f 102 103 104
f 102 104 44
f 103 41 105
f 103 105 104
f 104 105 106
f 104 106 44
f 105 41 42
f 105 42 106
f 106 42 43
f 106 43 44
f 108 107 111
f 108 111 109
f 109 111 112
f 109 112 110
f 111 107 113
f 111 113 112
f 112 113 114
f 112 114 110
f 113 107 115
f 113 115 114
f 114 115 116
f 114 116 110
f 115 107 117
f 115 117 116
f 116 117 118
f 116 118 110
f 117 107 119
f 117 119 118
f 118 119 120
f 118 120 110
f 119 107 121
f 119 121 120
f 120 121 122
f 120 122 110
f 121 107 123
f 121 123 122
f 122 123 124
f 122 124 110
f 123 107 125
f 123 125 124
f 124 125 126
f 124 126 110
f 125 107 127
f 125 127 126
f 126 127 128
f 126 128 110
f 127 107 129
f 127 129 128
f 128 129 130
f 128 130 110
f 129 107 131
f 129 131 130
f 130 131 132
f 130 132 110
f 131 107 133
f 131 133 132
f 132 133 134
f 132 134 110
f 133 107 135
f 133 135 134
f 134 135 136
f 134 136 110
f 135 107 137
f 135 137 136
f 136 137 138
f 136 138 110
f 137 107 139
f 137 139 138
f 138 139 140
f 138 140 110
f 139 107 141
f 139 141 140
f 140 141 142
f 140 142 110
f 141 107 143
f 141 143 142
f 142 143 144
f 142 144 110
f 143 107 145
f 143 145 144
f 144 145 146
f 144 146 110
f 145 107 147
f 145 147 146
f 146 147 148
f 146 148 110
f 147 107 149
f 147 149 148
f 148 149 150
f 148 150 110
f 149 107 151
f 149 151 150
f 150 151 152
f 150 152 110
f 151 107 153
f 151 153 152
f 152 153 154
f 152 154 110
f 153 107 155
f 153 155 154
f 154 155 156
f 154 156 110
f 155 107 157
f 155 157 156
f 156 157 158
f 156 158 110
f 157 107 159
f 157 159 158
f 158 159 160
f 158 160 110
f 159 107 161
f 159 161 160
f 160 161 162
f 160 162 110
f 161 107 163
f 161 163 162
f 162 163 164
f 162 164 110
f 163 107 165
f 163 165 164
f 164 165 166
f 164 166 110
f 165 107 167
f 165 167 166
f 166 167 168
f 166 168 110
f 167 107 169
f 167 169 168
f 168 169 170
f 168 170 110
f 169 107 171
f 169 171 170
f 170 171 172
f 170 172 110
f 171 107 108
f 171 108 172
f 172 108 109
f 172 109 110
f 174 173 177
f 174 177 175
f 175 177 178
f 175 178 176
f 177 173 179
f 177 179 178
f 178 179 180
f 178 180 176
f 179 173 181
f 179 181 180
f 180 181 182
f 180 182 176
f 181 173 183
f 181 183 182
f 182 183 184
f 182 184 176
f 183 173 185
f 183 185 184
f 184 185 186
f 184 186 176
f 185 173 187
f 185 187 186
f 186 187 188
f 186 188 176
f 187 173 189
f 187 189 188
f 188 189 190
f 188 190 176
f 189 173 191
f 189 191 190
f 190 191 192
f 190 192 176
f 191 173 193
f 191 193 192
f 192 193 194
f 192 194 176
f 193 173 195
f 193 195 194
f 194 195 196
f 194 196 176
f 195 173 197
f 195 197 196
f 196 197 198
f 196 198 176
f 197 173 199
f 197 199 198
f 198 199 200
f 198 200 176
f 199 173 201
f 199 201 200
f 200 201 202
f 200 202 176
f 201 173 203
f 201 203 202
f 202 203 204
f 202 204 176
f 203 173 205
f 203 205 204
f 204 205 206
f 204 206 176
f 205 173 207
f 205 207 206
f 206 207 208
f 206 208 176
f 207 173 209
f 207 209 208
f 208 209 210
f 208 210 176
f 209 173 211
f 209 211 210
f 210 211 212
f 210 212 176
f 211 173 213
f 211 213 212
f 212 213 214
f 212 214 176
f 213 173 215
f 213 215 214
f 214 215 216
f 214 216 176
f 215 173 217
f 215 217 216
f 216 217 218
f 216 218 176
f 217 173 219
f 217 219 218
f 218 219 220
f 218 220 176
f 219 173 221
f 219 221 220
f 220 221 222
f 220 222 176
f 221 173 223
f 221 223 222
f 222 223 224
f 222 224 176
f 223 173 225
f 223 225 224
f 224 225 226
f 224 226 176
f 225 173 227
f 225 227 226
f 226 227 228
f 226 228 176
f 227 173 229
f 227 229 228
f 228 229 230
f 228 230 176
f 229 173 231
f 229 231 230
f 230 231 232
f 230 232 176
f 231 173 233
f 231 233 232
f 232 233 234
f 232 234 176
f 233 173 235
f 233 235 234
f 234 235 236
f 234 236 176
f 235 173 237
f 235 237 236
f 236 237 238
f 236 238 176
f 237 173 174
f 237 174 238
f 238 174 175
f 238 175 176
f 240 239 243
f 240 243 241
f 241 243 244
f 241 244 242
f 243 239 245
f 243 245 244
f 244 245 246
f 244 246 242
f 245 239 247
f 245 247 246
f 246 247 248
f 246 248 242
f 247 239 249
f 247 249 248
f 248 249 250
f 248 250 242
f 249 239 251
f 249 251 250
f 250 251 252
f 250 252 242
f 251 239 253
f 251 253 252
f 252 253 254
f 252 254 242
f 253 239 255
f 253 255 254
f 254 255 256
f 254 256 242
f 255 239 257
f 255 257 256
f 256 257 258
f 256 258 242
f 257 239 259
f 257 259 258
f 258 259 260
f 258 260 242
f 259 239 261
f 259 261 260
f 260 261 262
f 260 262 242
f 261 239 263
f 261 263 262
f 262 263 264
f 262 264 242
f 263 239 265
f 263 265 264
f 264 265 266
f 264 266 242
f 265 239 267
f 265 267 266
f 266 267 268
f 266 268 242
f 267 239 269
f 267 269 268
f 268 269 270
f 268 270 242
f 269 239 271
f 269 271 270
f 270 271 272
f 270 272 242
f 271 239 273
f 271 273 272
f 272 273 274
f 272 274 242
f 273 239 275
f 273 275 274
f 274 275 276
f 274 276 242
f 275 239 277
f 275 277 276
f 276 277 278
f 276 278 242
f 277 239 279
f 277 279 278
f 278 279 280
f 278 280 242
f 279 239 281
f 279 281 280
f 280 281 282
f 280 282 242
f 281 239 283
f 281 283 282
f 282 283 284
f 282 284 242
f 283 239 285
f 283 285 284
f 284 285 286
f 284 286 242
f 285 239 287
f 285 287 286
f 286 287 288
f 286 288 242
f 287 239 289
f 287 289 288
f 288 289 290
f 288 290 242
f 289 239 291
f 289 291 290
f 290 291 292
f 290 292 242
f 291 239 293
f 291 293 292
f 292 293 294
f 292 294 242
f 293 239 295
f 293 295 294
f 294 295 296
f 294 296 242
f 295 239 297
f 295 297 296
f 296 297 298
f 296 298 242
f 297 239 299
f 297 299 298
f 298 299 300
f 298 300 242
f 299 239 301
f 299 301 300
f 300 301 302
f 300 302 242
f 301 239 303
f 301 303 302
f 302 303 304
f 302 304 242
f 303 239 240
f 303 240 304
f 304 240 241
f 304 241 242

